PathFileType	4	(X/Y/Z)	C:/Users/opensim2020/Desktop/walking_exp_matlab/subject06_walking21_straight_01.trc																																																																																																																																		
DataRate	CameraRate	NumFrames	NumMarkers	Units	OrigDataRate	OrigDataStartFrame	OrigNumFrames																																																																																																																														
100	100	4	44	mm	100	894	155																																																																																																																														
Frame#	Time	LFHD			RFHD			LBHD			RBHD			C7			T10			CLAV			STRN			RBAK			LSHO			LUPA			LELB			LFRM			LWRA			LWRB			LFIN			RSHO			RUPA			RELB			RFRM			RWRA			RWRB			RFIN			LASI			RASI			LPSI			RPSI			LTHI			LKNE			LTIB			LANK			LHEE			LTOE			RTHI			RKNE			RTIB			RANK			RHEE			RTOE			*39			*40			*41			*42			*43		
		X1	Y1	Z1	X2	Y2	Z2	X3	Y3	Z3	X4	Y4	Z4	X5	Y5	Z5	X6	Y6	Z6	X7	Y7	Z7	X8	Y8	Z8	X9	Y9	Z9	X10	Y10	Z10	X11	Y11	Z11	X12	Y12	Z12	X13	Y13	Z13	X14	Y14	Z14	X15	Y15	Z15	X16	Y16	Z16	X17	Y17	Z17	X18	Y18	Z18	X19	Y19	Z19	X20	Y20	Z20	X21	Y21	Z21	X22	Y22	Z22	X23	Y23	Z23	X24	Y24	Z24	X25	Y25	Z25	X26	Y26	Z26	X27	Y27	Z27	X28	Y28	Z28	X29	Y29	Z29	X30	Y30	Z30	X31	Y31	Z31	X32	Y32	Z32	X33	Y33	Z33	X34	Y34	Z34	X35	Y35	Z35	X36	Y36	Z36	X37	Y37	Z37	X38	Y38	Z38	X39	Y39	Z39	X40	Y40	Z40	X41	Y41	Z41	X42	Y42	Z42	X43	Y43	Z43	X44	Y44	Z44
																																																																																																																																					
136	1.35	785.37836	1647.297	-1032.71094	770.14758	1625.72937	-903.71033	652.90558	1596.90771	-1053.4115	639.12683	1580.2428	-925.94037	643.82037	1431.27075	-998.4693	612.83075	1101.76208	-998.57599	755.7547	1354.85645	-999.60046	798.04932	1181.47754	-1010.31946	575.32599	1257.51501	-917.52399	697.16547	1389.29541	-1159.92432	674.20258	1191.32813	-1239.8092	657.15027	1081.60181	-1256.85278	668.51959	934.74872	-1294.02637	727.46777	813.34546	-1269.65088	662.55835	816.93634	-1299.90723	690.53119	729.46735	-1306.00391	711.00629	1385.1571	-837.60889	680.76117	1188.16956	-746.78729	701.11389	1068.52295	-732.39301	750.71881	959.73987	-721.52014	848.80231	851.10425	-766.34827	801.53119	831.92822	-723.35229	862.70538	774.19678	-728.44299	795.61456	951.07477	-1110.55066	788.72656	946.20422	-891.91418	635.92578	968.77332	-1090.92212	636.61584	971.14307	-921.91693	808.60559	642.06592	-1187.21106	877.66309	495.39691	-1162.07068	900.1416	240.98526	-1157.83142	947.01733	73.18597	-1122.91809	919.29291	52.30241	-1070.1228	1092.25916	70.25568	-1140.95288	697.16663	614.22296	-856.53687	675.45691	489.07294	-880.24231	552.73181	247.23015	-885.77087	476.10284	77.2011	-931.7041	427.08328	60.1277	-972.95789	622.00171	30.20521	-939.7594	679.80377	1683.07666	-982.71661	NaN	NaN	NaN	NaN	NaN	NaN	NaN	NaN	NaN	NaN	NaN	NaN
137	1.36	799.56097	1644.45789	-1033.05151	784.10913	1623	-903.9519	667.06891	1593.82605	-1053.76746	653.19232	1577.26721	-926.34161	658.09363	1428.2843	-998.5603	626.72388	1098.80701	-998.95508	769.96948	1351.99585	-999.67499	812.14636	1178.58105	-1010.11005	589.33832	1254.46423	-917.37695	711.25238	1386.10559	-1160.22021	685.82605	1188.4801	-1240.17822	667.15479	1079.1449	-1257.73669	676.31073	932.30634	-1295.46814	733.69965	809.97308	-1271.86279	668.69238	814.71954	-1301.63892	694.91443	726.65021	-1307.86694	725.23206	1382.29028	-837.6463	695.59985	1185.27576	-746.60217	716.37769	1065.8147	-732.09845	767.46729	957.78845	-721.67456	866.94135	851.01312	-767.24554	820.04108	831.03485	-723.96112	882.13934	774.11273	-729.94989	810.90161	948.61005	-1109.97766	802.34827	943.57135	-891.33691	651.14984	965.8136	-1092.15393	650.32959	968.10541	-923.1792	820.89117	637.99164	-1188.6781	890.39026	491.28854	-1162.67651	925.17798	238.6618	-1159.39783	981.75568	73.40656	-1125.4541	954.39624	50.84561	-1073.25134	1128.01721	77.86378	-1140.45984	708.5155	612.40961	-856.31299	685.71082	487.30563	-880.11279	557.68604	247.72575	-885.90326	477.29324	79.43494	-931.67877	427.97983	63.41605	-972.85449	622.14954	30.14978	-939.78918	693.8114	1680.13208	-983.1507	NaN	NaN	NaN	NaN	NaN	NaN	NaN	NaN	NaN	NaN	NaN	NaN
138	1.37	813.76208	1641.78845	-1033.22827	798.1521	1620.32373	-904.14319	681.36957	1591.02283	-1054.14551	667.29327	1574.38	-926.73462	672.40735	1425.53394	-998.89178	640.93475	1095.86963	-999.59613	784.25305	1349.19373	-999.87915	826.34503	1175.76379	-1009.93561	603.3147	1251.72571	-917.30121	725.42633	1382.89307	-1160.64685	697.92847	1185.85522	-1241.00208	677.69373	1076.74744	-1258.77515	684.51929	929.90155	-1296.77856	740.40601	806.79889	-1274.21924	675.02246	812.46204	-1303.16162	699.82056	724.06189	-1309.65271	739.46979	1379.42297	-837.78357	710.83826	1182.37744	-746.30316	731.75659	1063.01172	-731.97595	783.97455	955.71094	-721.90936	884.68787	850.6076	-768.11285	838.50092	829.586	-724.93176	901.46936	773.97888	-730.96826	826.54376	946.18964	-1109.45654	816.17749	941.15588	-890.68835	666.67761	962.88336	-1093.60291	664.08508	965.08777	-924.55884	834.01831	634.42139	-1190.42822	903.42157	487.42584	-1163.32446	948.68665	237.17062	-1160.73291	1013.61707	74.45959	-1127.96033	986.49561	50.06882	-1076.62378	1160.36804	85.9098	-1139.19055	720.31592	610.67908	-856.11578	696.5199	485.63702	-880.11041	563.15448	248.52902	-885.82544	478.64606	82.21873	-931.22235	429.47943	66.99154	-972.56555	622.40643	30.2625	-939.75977	707.87091	1677.28955	-983.54407	NaN	NaN	NaN	NaN	NaN	NaN	NaN	NaN	NaN	NaN	NaN	NaN
139	1.38	828.09674	1639.29968	-1033.41467	812.22345	1617.75098	-904.34253	695.78693	1588.35437	-1054.58569	681.54663	1571.62793	-927.23444	686.79639	1423.01428	-999.22626	655.20947	1093.12842	-1000.23492	798.58752	1346.5614	-1000.1322	840.59656	1173.10828	-1009.86182	617.28595	1249.01392	-917.56177	739.6618	1379.84314	-1161.1554	710.23669	1183.22729	-1241.69775	688.54071	1074.40833	-1259.66589	693.04083	927.64331	-1297.97766	747.27332	803.5144	-1276.32837	681.81464	810.41016	-1304.50012	705.11377	721.64026	-1311.45923	753.79083	1376.70154	-837.97107	725.42822	1179.46851	-746.63812	747.21545	1060.31079	-732.00385	800.41455	953.5954	-722.25305	902.03839	849.97046	-768.91455	856.23877	828.14203	-725.74451	919.99817	773.48187	-732.10602	842.30475	943.97852	-1108.91943	829.98077	938.66919	-889.88159	682.35004	960.1958	-1095.18933	677.88916	962.15906	-926.1684	848.38086	631.60474	-1191.92651	917.13043	484.20316	-1163.98389	970.43665	236.30962	-1162.49219	1042.2395	75.93726	-1130.22705	1014.9801	49.83023	-1079.81262	1189.03882	93.25569	-1137.55383	732.70508	608.95941	-856.07849	708.1123	483.91907	-880.02979	569.04974	249.69704	-885.64783	480.31934	85.38098	-930.64081	430.49109	71.66116	-971.95837	622.30286	30.0724	-939.7561	722.0097	1674.61755	-983.88049	NaN	NaN	NaN	NaN	NaN	NaN	NaN	NaN	NaN	NaN	NaN	NaN
